<svg xmlns="http://www.w3.org/2000/svg" xmlns:xlink="http://www.w3.org/1999/xlink" width="2000" zoomAndPan="magnify" viewBox="0 0 1500 1499.999933" height="2000" preserveAspectRatio="xMidYMid meet" version="1.0"><defs><g/><clipPath id="4b9535b257"><path d="M 180 340.996094 L 465.773438 340.996094 L 465.773438 664.246094 L 180 664.246094 Z M 180 340.996094 " clip-rule="nonzero"/></clipPath><clipPath id="80b2f02d48"><path d="M 142.523438 432.976562 L 249.023438 432.976562 L 249.023438 989.476562 L 142.523438 989.476562 Z M 142.523438 432.976562 " clip-rule="nonzero"/></clipPath></defs><path fill="#4caf50" d="M 185.65625 607.285156 C 210.578125 629.5 243.328125 643.03125 279.355469 643.03125 C 322.21875 643.03125 360.667969 623.804688 386.441406 593.617188 C 363.941406 614.976562 333.613281 628.078125 300.148438 628.078125 C 274.65625 628.078125 250.878906 620.386719 231.082031 607.285156 Z M 185.65625 607.285156 " fill-opacity="1" fill-rule="evenodd"/><g clip-path="url(#4b9535b257)"><path fill="#ff1f00" d="M 424.320312 502.621094 C 424.320312 422.878906 359.671875 358.226562 279.925781 358.226562 C 241.476562 358.226562 206.449219 373.324219 180.53125 397.816406 C 210.148438 362.925781 254.292969 340.855469 303.707031 340.855469 C 392.992188 340.855469 465.332031 413.195312 465.332031 502.480469 C 465.332031 591.765625 392.992188 664.105469 303.707031 664.105469 C 254.4375 664.105469 210.292969 642.03125 180.53125 607.144531 C 206.449219 631.636719 241.335938 646.730469 279.925781 646.730469 C 359.671875 646.730469 424.320312 582.082031 424.320312 502.335938 Z M 424.320312 502.621094 " fill-opacity="1" fill-rule="evenodd"/></g><path fill="#ff1f00" d="M 282.488281 512.875 L 251.445312 553.601562 L 159.882812 488.808594 L 153.476562 497.210938 L 143.078125 461.46875 L 180.386719 461.753906 L 174.265625 469.585938 L 247.601562 523.839844 L 277.933594 484.679688 L 395.699219 580.800781 C 394.273438 582.9375 397.265625 578.808594 395.699219 580.800781 C 282.632812 512.734375 395.699219 580.800781 282.632812 512.734375 Z M 282.488281 512.875 " fill-opacity="1" fill-rule="evenodd"/><path fill="#4caf50" d="M 230.796875 397.957031 C 250.59375 384.855469 274.375 377.167969 299.863281 377.167969 C 333.328125 377.167969 363.660156 390.269531 386.15625 411.628906 C 360.382812 381.296875 321.933594 362.214844 279.074219 362.214844 C 243.046875 362.214844 210.292969 375.742188 185.371094 397.957031 Z M 230.796875 397.957031 " fill-opacity="1" fill-rule="evenodd"/><path fill="#4caf50" d="M 324.214844 471.863281 L 382.882812 471.863281 L 382.882812 561.292969 L 324.214844 513.445312 Z M 324.214844 471.863281 " fill-opacity="1" fill-rule="evenodd"/><path fill="#4caf50" d="M 335.464844 552.890625 C 351.269531 562.429688 367.074219 571.972656 382.882812 581.511719 L 382.882812 587.207031 L 381.457031 588.632812 C 365.367188 603.871094 345.574219 614.265625 324.214844 618.679688 L 324.214844 546.339844 C 327.914062 548.617188 331.761719 550.894531 335.464844 553.175781 Z M 335.464844 552.890625 " fill-opacity="1" fill-rule="evenodd"/><path fill="#4caf50" d="M 313.675781 539.789062 L 313.675781 620.101562 C 309.117188 620.671875 304.5625 620.957031 299.863281 620.957031 C 284.339844 620.957031 269.105469 617.96875 254.863281 612.128906 L 254.863281 560.578125 L 284.199219 522.132812 C 294.023438 527.96875 303.851562 533.949219 313.535156 539.789062 Z M 313.675781 539.789062 " fill-opacity="1" fill-rule="evenodd"/><path fill="#4caf50" d="M 313.675781 504.902344 L 276.652344 474.570312 L 255.007812 502.621094 L 255.007812 452.210938 L 313.675781 452.210938 Z M 313.675781 504.902344 " fill-opacity="1" fill-rule="evenodd"/><path fill="#4caf50" d="M 244.328125 432.988281 L 244.328125 512.589844 L 185.65625 469.160156 L 185.65625 466.453125 L 194.769531 454.777344 L 185.65625 454.632812 L 185.65625 432.988281 Z M 244.328125 432.988281 " fill-opacity="1" fill-rule="evenodd"/><path fill="#4caf50" d="M 185.65625 515.582031 L 244.328125 557.160156 L 244.328125 607.144531 C 241.050781 605.4375 237.777344 603.441406 234.644531 601.449219 L 232.933594 600.308594 L 185.65625 600.308594 Z M 185.65625 515.582031 " fill-opacity="1" fill-rule="evenodd"/><g clip-path="url(#80b2f02d48)"><path fill="#ff1f00" d="M 142.523438 432.976562 L 249.023438 432.976562 L 249.023438 989.472656 L 142.523438 989.472656 L 142.523438 432.976562 " fill-opacity="1" fill-rule="nonzero"/></g><g fill="#000000" fill-opacity="1"><g transform="translate(276.341055, 872.036737)"><g><path d="M 72.359375 -146.390625 C 84.503906 -146.390625 95.34375 -144.285156 104.875 -140.078125 C 114.414062 -135.867188 121.847656 -130.117188 127.171875 -122.828125 C 132.503906 -115.535156 135.171875 -107.40625 135.171875 -98.4375 L 135.171875 -4.765625 C 135.171875 -1.585938 133.582031 0 130.40625 0 L 100.390625 0 C 97.210938 0 95.625 -1.585938 95.625 -4.765625 L 95.625 -11.5 C 95.625 -12.25 95.4375 -12.671875 95.0625 -12.765625 C 94.6875 -12.859375 94.222656 -12.625 93.671875 -12.0625 C 85.066406 -2.519531 72.257812 2.25 55.25 2.25 C 40.851562 2.25 29.257812 -1.300781 20.46875 -8.40625 C 11.6875 -15.507812 7.296875 -25.984375 7.296875 -39.828125 C 7.296875 -54.222656 12.34375 -65.390625 22.4375 -73.328125 C 32.53125 -81.273438 46.925781 -85.25 65.625 -85.25 L 93.953125 -85.25 C 95.066406 -85.25 95.625 -85.8125 95.625 -86.9375 L 95.625 -92.828125 C 95.625 -98.992188 93.707031 -103.804688 89.875 -107.265625 C 86.039062 -110.722656 80.476562 -112.453125 73.1875 -112.453125 C 67.582031 -112.453125 62.957031 -111.515625 59.3125 -109.640625 C 55.664062 -107.773438 53.1875 -105.160156 51.875 -101.796875 C 50.757812 -99.179688 48.890625 -97.96875 46.265625 -98.15625 L 15.140625 -102.078125 C 13.648438 -102.265625 12.484375 -102.6875 11.640625 -103.34375 C 10.796875 -104 10.46875 -104.882812 10.65625 -106 C 11.59375 -113.664062 14.816406 -120.582031 20.328125 -126.75 C 25.847656 -132.925781 33.140625 -137.742188 42.203125 -141.203125 C 51.273438 -144.660156 61.328125 -146.390625 72.359375 -146.390625 Z M 66.75 -27.203125 C 74.78125 -27.203125 81.597656 -29.351562 87.203125 -33.65625 C 92.816406 -37.957031 95.625 -43.472656 95.625 -50.203125 L 95.625 -60.015625 C 95.625 -61.140625 95.066406 -61.703125 93.953125 -61.703125 L 74.03125 -61.703125 C 65.625 -61.703125 58.988281 -60.109375 54.125 -56.921875 C 49.257812 -53.742188 46.828125 -49.257812 46.828125 -43.46875 C 46.828125 -38.414062 48.648438 -34.441406 52.296875 -31.546875 C 55.941406 -28.648438 60.757812 -27.203125 66.75 -27.203125 Z M 66.75 -27.203125 "/></g></g></g><g fill="#000000" fill-opacity="1"><g transform="translate(457.219852, 872.036737)"><g><path d="M 89.734375 -146.390625 C 104.691406 -146.390625 116.75 -141.804688 125.90625 -132.640625 C 135.070312 -123.484375 139.65625 -111.050781 139.65625 -95.34375 L 139.65625 -4.765625 C 139.65625 -1.585938 138.066406 0 134.890625 0 L 104.890625 0 C 101.703125 0 100.109375 -1.585938 100.109375 -4.765625 L 100.109375 -87.21875 C 100.109375 -94.695312 98.050781 -100.769531 93.9375 -105.4375 C 89.832031 -110.113281 84.320312 -112.453125 77.40625 -112.453125 C 70.488281 -112.453125 64.878906 -110.113281 60.578125 -105.4375 C 56.273438 -100.769531 54.125 -94.695312 54.125 -87.21875 L 54.125 -4.765625 C 54.125 -1.585938 52.535156 0 49.359375 0 L 19.34375 0 C 16.164062 0 14.578125 -1.585938 14.578125 -4.765625 L 14.578125 -139.375 C 14.578125 -142.550781 16.164062 -144.140625 19.34375 -144.140625 L 49.359375 -144.140625 C 52.535156 -144.140625 54.125 -142.550781 54.125 -139.375 L 54.125 -131.53125 C 54.125 -130.78125 54.3125 -130.3125 54.6875 -130.125 C 55.0625 -129.9375 55.4375 -130.125 55.8125 -130.6875 C 63.476562 -141.15625 74.785156 -146.390625 89.734375 -146.390625 Z M 89.734375 -146.390625 "/></g></g></g><g fill="#000000" fill-opacity="1"><g transform="translate(643.426836, 872.036737)"><g><path d="M 97.3125 -117.21875 C 97.3125 -114.039062 95.722656 -112.453125 92.546875 -112.453125 L 67.3125 -112.453125 C 66.1875 -112.453125 65.625 -111.890625 65.625 -110.765625 L 65.625 -52.71875 C 65.625 -46.550781 66.882812 -42.019531 69.40625 -39.125 C 71.925781 -36.226562 75.992188 -34.78125 81.609375 -34.78125 L 89.453125 -34.78125 C 92.640625 -34.78125 94.234375 -33.1875 94.234375 -30 L 94.234375 -5.890625 C 94.234375 -2.898438 92.640625 -1.21875 89.453125 -0.84375 C 82.347656 -0.46875 77.207031 -0.28125 74.03125 -0.28125 C 58.519531 -0.28125 46.929688 -2.894531 39.265625 -8.125 C 31.597656 -13.363281 27.671875 -23.085938 27.484375 -37.296875 L 27.484375 -110.765625 C 27.484375 -111.890625 26.921875 -112.453125 25.796875 -112.453125 L 11.5 -112.453125 C 8.320312 -112.453125 6.734375 -114.039062 6.734375 -117.21875 L 6.734375 -139.375 C 6.734375 -142.550781 8.320312 -144.140625 11.5 -144.140625 L 25.796875 -144.140625 C 26.921875 -144.140625 27.484375 -144.703125 27.484375 -145.828125 L 27.484375 -177.515625 C 27.484375 -180.691406 29.070312 -182.28125 32.25 -182.28125 L 60.859375 -182.28125 C 64.035156 -182.28125 65.625 -180.691406 65.625 -177.515625 L 65.625 -145.828125 C 65.625 -144.703125 66.1875 -144.140625 67.3125 -144.140625 L 92.546875 -144.140625 C 95.722656 -144.140625 97.3125 -142.550781 97.3125 -139.375 Z M 97.3125 -117.21875 "/></g></g></g><g fill="#000000" fill-opacity="1"><g transform="translate(782.801672, 872.036737)"><g><path d="M 84.125 -31.125 C 96.46875 -31.6875 105.910156 -35.988281 112.453125 -44.03125 C 113.578125 -45.332031 114.789062 -45.984375 116.09375 -45.984375 C 117.21875 -45.984375 118.25 -45.519531 119.1875 -44.59375 L 135.171875 -29.171875 C 136.296875 -28.046875 136.859375 -26.921875 136.859375 -25.796875 C 136.859375 -24.492188 136.484375 -23.375 135.734375 -22.4375 C 129.566406 -14.769531 121.664062 -8.738281 112.03125 -4.34375 C 102.40625 0.0507812 91.890625 2.25 80.484375 2.25 C 63.285156 2.25 49.03125 -2.144531 37.71875 -10.9375 C 26.40625 -19.726562 18.785156 -31.785156 14.859375 -47.109375 C 12.617188 -55.335938 11.5 -64.03125 11.5 -73.1875 C 11.5 -84.03125 12.523438 -93.191406 14.578125 -100.671875 C 18.316406 -114.503906 25.84375 -125.628906 37.15625 -134.046875 C 48.46875 -142.460938 61.882812 -146.671875 77.40625 -146.671875 C 95.726562 -146.671875 110.265625 -141.25 121.015625 -130.40625 C 131.765625 -119.5625 138.726562 -104.320312 141.90625 -84.6875 C 142.644531 -78.519531 143.203125 -71.695312 143.578125 -64.21875 C 143.578125 -61.039062 141.988281 -59.453125 138.8125 -59.453125 L 52.71875 -59.453125 C 51.601562 -59.453125 51.046875 -58.890625 51.046875 -57.765625 C 51.597656 -53.835938 52.25 -50.941406 53 -49.078125 C 54.875 -43.285156 58.566406 -38.84375 64.078125 -35.75 C 69.597656 -32.664062 76.28125 -31.125 84.125 -31.125 Z M 76.84375 -112.453125 C 70.851562 -112.453125 65.847656 -111.003906 61.828125 -108.109375 C 57.816406 -105.210938 55.0625 -101.144531 53.5625 -95.90625 C 52.625 -92.351562 52.0625 -90.019531 51.875 -88.90625 C 51.6875 -87.78125 52.15625 -87.21875 53.28125 -87.21875 L 100.953125 -87.21875 C 101.890625 -87.21875 102.359375 -87.59375 102.359375 -88.34375 C 102.359375 -90.394531 101.984375 -92.539062 101.234375 -94.78125 C 99.554688 -100.207031 96.660156 -104.507812 92.546875 -107.6875 C 88.429688 -110.863281 83.195312 -112.453125 76.84375 -112.453125 Z M 76.84375 -112.453125 "/></g></g></g><g fill="#000000" fill-opacity="1"><g transform="translate(969.008656, 872.036737)"><g><path d="M 86.375 -146.109375 C 92.351562 -146.109375 97.304688 -144.988281 101.234375 -142.75 C 103.484375 -141.625 104.328125 -139.660156 103.765625 -136.859375 L 98.4375 -107.40625 C 98.25 -105.726562 97.734375 -104.703125 96.890625 -104.328125 C 96.046875 -103.953125 94.691406 -103.953125 92.828125 -104.328125 C 89.835938 -105.066406 87.125 -105.4375 84.6875 -105.4375 C 83.382812 -105.4375 81.234375 -105.253906 78.234375 -104.890625 C 71.503906 -104.328125 65.800781 -101.847656 61.125 -97.453125 C 56.457031 -93.054688 54.125 -87.210938 54.125 -79.921875 L 54.125 -4.765625 C 54.125 -1.585938 52.535156 0 49.359375 0 L 19.34375 0 C 16.164062 0 14.578125 -1.585938 14.578125 -4.765625 L 14.578125 -139.375 C 14.578125 -142.550781 16.164062 -144.140625 19.34375 -144.140625 L 49.359375 -144.140625 C 52.535156 -144.140625 54.125 -142.550781 54.125 -139.375 L 54.125 -130.6875 C 54.125 -129.9375 54.3125 -129.46875 54.6875 -129.28125 C 55.0625 -129.09375 55.53125 -129.28125 56.09375 -129.84375 C 63.570312 -140.6875 73.664062 -146.109375 86.375 -146.109375 Z M 86.375 -146.109375 "/></g></g></g><g fill="#000000" fill-opacity="1"><g transform="translate(1109.224864, 872.036737)"><g><path d="M 72.359375 -146.390625 C 84.503906 -146.390625 95.34375 -144.285156 104.875 -140.078125 C 114.414062 -135.867188 121.847656 -130.117188 127.171875 -122.828125 C 132.503906 -115.535156 135.171875 -107.40625 135.171875 -98.4375 L 135.171875 -4.765625 C 135.171875 -1.585938 133.582031 0 130.40625 0 L 100.390625 0 C 97.210938 0 95.625 -1.585938 95.625 -4.765625 L 95.625 -11.5 C 95.625 -12.25 95.4375 -12.671875 95.0625 -12.765625 C 94.6875 -12.859375 94.222656 -12.625 93.671875 -12.0625 C 85.066406 -2.519531 72.257812 2.25 55.25 2.25 C 40.851562 2.25 29.257812 -1.300781 20.46875 -8.40625 C 11.6875 -15.507812 7.296875 -25.984375 7.296875 -39.828125 C 7.296875 -54.222656 12.34375 -65.390625 22.4375 -73.328125 C 32.53125 -81.273438 46.925781 -85.25 65.625 -85.25 L 93.953125 -85.25 C 95.066406 -85.25 95.625 -85.8125 95.625 -86.9375 L 95.625 -92.828125 C 95.625 -98.992188 93.707031 -103.804688 89.875 -107.265625 C 86.039062 -110.722656 80.476562 -112.453125 73.1875 -112.453125 C 67.582031 -112.453125 62.957031 -111.515625 59.3125 -109.640625 C 55.664062 -107.773438 53.1875 -105.160156 51.875 -101.796875 C 50.757812 -99.179688 48.890625 -97.96875 46.265625 -98.15625 L 15.140625 -102.078125 C 13.648438 -102.265625 12.484375 -102.6875 11.640625 -103.34375 C 10.796875 -104 10.46875 -104.882812 10.65625 -106 C 11.59375 -113.664062 14.816406 -120.582031 20.328125 -126.75 C 25.847656 -132.925781 33.140625 -137.742188 42.203125 -141.203125 C 51.273438 -144.660156 61.328125 -146.390625 72.359375 -146.390625 Z M 66.75 -27.203125 C 74.78125 -27.203125 81.597656 -29.351562 87.203125 -33.65625 C 92.816406 -37.957031 95.625 -43.472656 95.625 -50.203125 L 95.625 -60.015625 C 95.625 -61.140625 95.066406 -61.703125 93.953125 -61.703125 L 74.03125 -61.703125 C 65.625 -61.703125 58.988281 -60.109375 54.125 -56.921875 C 49.257812 -53.742188 46.828125 -49.257812 46.828125 -43.46875 C 46.828125 -38.414062 48.648438 -34.441406 52.296875 -31.546875 C 55.941406 -28.648438 60.757812 -27.203125 66.75 -27.203125 Z M 66.75 -27.203125 "/></g></g></g><g fill="#000000" fill-opacity="1"><g transform="translate(322.116597, 974.503848)"><g><path d="M 38.296875 -50.6875 C 39.078125 -50.6875 39.46875 -50.300781 39.46875 -49.53125 L 39.46875 -44.53125 C 39.46875 -43.757812 39.078125 -43.375 38.296875 -43.375 L 25.34375 -43.375 C 25.050781 -43.375 24.90625 -43.226562 24.90625 -42.9375 L 24.90625 -1.15625 C 24.90625 -0.382812 24.519531 0 23.75 0 L 17.671875 0 C 16.898438 0 16.515625 -0.382812 16.515625 -1.15625 L 16.515625 -42.9375 C 16.515625 -43.226562 16.367188 -43.375 16.078125 -43.375 L 3.625 -43.375 C 2.851562 -43.375 2.46875 -43.757812 2.46875 -44.53125 L 2.46875 -49.53125 C 2.46875 -50.300781 2.851562 -50.6875 3.625 -50.6875 Z M 38.296875 -50.6875 "/></g></g></g><g fill="#000000" fill-opacity="1"><g transform="translate(394.528748, 974.503848)"><g><path d="M 33.953125 0 C 33.273438 0 32.816406 -0.289062 32.578125 -0.875 L 23.09375 -21.578125 C 23.050781 -21.765625 22.882812 -21.859375 22.59375 -21.859375 L 14.125 -21.859375 C 13.832031 -21.859375 13.6875 -21.71875 13.6875 -21.4375 L 13.6875 -1.15625 C 13.6875 -0.382812 13.300781 0 12.53125 0 L 6.4375 0 C 5.664062 0 5.28125 -0.382812 5.28125 -1.15625 L 5.28125 -49.59375 C 5.28125 -50.363281 5.664062 -50.75 6.4375 -50.75 L 26.0625 -50.75 C 29.007812 -50.75 31.617188 -50.132812 33.890625 -48.90625 C 36.160156 -47.675781 37.921875 -45.9375 39.171875 -43.6875 C 40.421875 -41.445312 41.046875 -38.878906 41.046875 -35.984375 C 41.046875 -32.648438 40.1875 -29.8125 38.46875 -27.46875 C 36.757812 -25.132812 34.410156 -23.53125 31.421875 -22.65625 C 31.273438 -22.613281 31.175781 -22.53125 31.125 -22.40625 C 31.082031 -22.289062 31.109375 -22.179688 31.203125 -22.078125 L 41.203125 -1.375 L 41.34375 -0.796875 C 41.34375 -0.265625 41.003906 0 40.328125 0 Z M 14.125 -43.515625 C 13.832031 -43.515625 13.6875 -43.367188 13.6875 -43.078125 L 13.6875 -28.8125 C 13.6875 -28.53125 13.832031 -28.390625 14.125 -28.390625 L 24.90625 -28.390625 C 27.226562 -28.390625 29.097656 -29.078125 30.515625 -30.453125 C 31.941406 -31.828125 32.65625 -33.625 32.65625 -35.84375 C 32.65625 -38.113281 31.941406 -39.957031 30.515625 -41.375 C 29.097656 -42.800781 27.226562 -43.515625 24.90625 -43.515625 Z M 14.125 -43.515625 "/></g></g></g><g fill="#000000" fill-opacity="1"><g transform="translate(469.402833, 974.503848)"><g><path d="M 37 0 C 36.320312 0 35.890625 -0.3125 35.703125 -0.9375 L 33.453125 -8.40625 C 33.398438 -8.644531 33.226562 -8.765625 32.9375 -8.765625 L 13.96875 -8.765625 C 13.6875 -8.765625 13.519531 -8.644531 13.46875 -8.40625 L 11.21875 -0.9375 C 11.03125 -0.3125 10.597656 0 9.921875 0 L 3.328125 0 C 2.941406 0 2.664062 -0.117188 2.5 -0.359375 C 2.332031 -0.597656 2.296875 -0.910156 2.390625 -1.296875 L 17.890625 -49.75 C 18.078125 -50.375 18.507812 -50.6875 19.1875 -50.6875 L 27.65625 -50.6875 C 28.332031 -50.6875 28.769531 -50.375 28.96875 -49.75 L 44.53125 -1.296875 C 44.582031 -1.203125 44.609375 -1.0625 44.609375 -0.875 C 44.609375 -0.289062 44.269531 0 43.59375 0 Z M 15.71875 -15.859375 C 15.664062 -15.515625 15.785156 -15.34375 16.078125 -15.34375 L 30.84375 -15.34375 C 31.132812 -15.34375 31.253906 -15.515625 31.203125 -15.859375 L 23.75 -40.46875 C 23.695312 -40.664062 23.609375 -40.765625 23.484375 -40.765625 C 23.367188 -40.765625 23.265625 -40.664062 23.171875 -40.46875 Z M 15.71875 -15.859375 "/></g></g></g><g fill="#000000" fill-opacity="1"><g transform="translate(546.811275, 974.503848)"><g><path d="M 6.4375 0 C 5.664062 0 5.28125 -0.382812 5.28125 -1.15625 L 5.28125 -49.53125 C 5.28125 -50.300781 5.664062 -50.6875 6.4375 -50.6875 L 23.828125 -50.6875 C 27.253906 -50.6875 30.269531 -50.082031 32.875 -48.875 C 35.476562 -47.664062 37.488281 -45.9375 38.90625 -43.6875 C 40.332031 -41.445312 41.046875 -38.832031 41.046875 -35.84375 L 41.046875 -14.84375 C 41.046875 -11.851562 40.332031 -9.234375 38.90625 -6.984375 C 37.488281 -4.742188 35.476562 -3.019531 32.875 -1.8125 C 30.269531 -0.601562 27.253906 0 23.828125 0 Z M 13.6875 -7.671875 C 13.6875 -7.378906 13.832031 -7.234375 14.125 -7.234375 L 24.1875 -7.234375 C 26.738281 -7.234375 28.773438 -8.039062 30.296875 -9.65625 C 31.816406 -11.28125 32.601562 -13.441406 32.65625 -16.140625 L 32.65625 -34.46875 C 32.65625 -37.21875 31.878906 -39.398438 30.328125 -41.015625 C 28.785156 -42.628906 26.710938 -43.4375 24.109375 -43.4375 L 14.125 -43.4375 C 13.832031 -43.4375 13.6875 -43.296875 13.6875 -43.015625 Z M 13.6875 -7.671875 "/></g></g></g><g fill="#000000" fill-opacity="1"><g transform="translate(622.04741, 974.503848)"><g><path d="M 39.609375 -44.609375 C 39.609375 -43.828125 39.222656 -43.4375 38.453125 -43.4375 L 14.125 -43.4375 C 13.832031 -43.4375 13.6875 -43.296875 13.6875 -43.015625 L 13.6875 -29.609375 C 13.6875 -29.328125 13.832031 -29.1875 14.125 -29.1875 L 30.34375 -29.1875 C 31.113281 -29.1875 31.5 -28.796875 31.5 -28.015625 L 31.5 -23.09375 C 31.5 -22.320312 31.113281 -21.9375 30.34375 -21.9375 L 14.125 -21.9375 C 13.832031 -21.9375 13.6875 -21.789062 13.6875 -21.5 L 13.6875 -7.671875 C 13.6875 -7.378906 13.832031 -7.234375 14.125 -7.234375 L 38.453125 -7.234375 C 39.222656 -7.234375 39.609375 -6.847656 39.609375 -6.078125 L 39.609375 -1.15625 C 39.609375 -0.382812 39.222656 0 38.453125 0 L 6.4375 0 C 5.664062 0 5.28125 -0.382812 5.28125 -1.15625 L 5.28125 -49.53125 C 5.28125 -50.300781 5.664062 -50.6875 6.4375 -50.6875 L 38.453125 -50.6875 C 39.222656 -50.6875 39.609375 -50.300781 39.609375 -49.53125 Z M 39.609375 -44.609375 "/></g></g></g><g fill="#000000" fill-opacity="1"><g transform="translate(695.400912, 974.503848)"><g/></g></g><g fill="#000000" fill-opacity="1"><g transform="translate(740.369729, 974.503848)"><g><path d="M 6.4375 0 C 5.664062 0 5.28125 -0.382812 5.28125 -1.15625 L 5.28125 -49.53125 C 5.28125 -50.300781 5.664062 -50.6875 6.4375 -50.6875 L 12.234375 -50.6875 C 12.910156 -50.6875 13.394531 -50.421875 13.6875 -49.890625 L 33.953125 -16.71875 C 34.054688 -16.53125 34.164062 -16.457031 34.28125 -16.5 C 34.40625 -16.550781 34.46875 -16.675781 34.46875 -16.875 L 34.46875 -49.53125 C 34.46875 -50.300781 34.851562 -50.6875 35.625 -50.6875 L 41.703125 -50.6875 C 42.472656 -50.6875 42.859375 -50.300781 42.859375 -49.53125 L 42.859375 -1.15625 C 42.859375 -0.382812 42.472656 0 41.703125 0 L 35.765625 0 C 35.085938 0 34.609375 -0.265625 34.328125 -0.796875 L 14.046875 -34.171875 C 13.953125 -34.367188 13.84375 -34.441406 13.71875 -34.390625 C 13.601562 -34.347656 13.546875 -34.226562 13.546875 -34.03125 L 13.609375 -1.15625 C 13.609375 -0.382812 13.222656 0 12.453125 0 Z M 6.4375 0 "/></g></g></g><g fill="#000000" fill-opacity="1"><g transform="translate(818.936735, 974.503848)"><g><path d="M 39.609375 -44.609375 C 39.609375 -43.828125 39.222656 -43.4375 38.453125 -43.4375 L 14.125 -43.4375 C 13.832031 -43.4375 13.6875 -43.296875 13.6875 -43.015625 L 13.6875 -29.609375 C 13.6875 -29.328125 13.832031 -29.1875 14.125 -29.1875 L 30.34375 -29.1875 C 31.113281 -29.1875 31.5 -28.796875 31.5 -28.015625 L 31.5 -23.09375 C 31.5 -22.320312 31.113281 -21.9375 30.34375 -21.9375 L 14.125 -21.9375 C 13.832031 -21.9375 13.6875 -21.789062 13.6875 -21.5 L 13.6875 -7.671875 C 13.6875 -7.378906 13.832031 -7.234375 14.125 -7.234375 L 38.453125 -7.234375 C 39.222656 -7.234375 39.609375 -6.847656 39.609375 -6.078125 L 39.609375 -1.15625 C 39.609375 -0.382812 39.222656 0 38.453125 0 L 6.4375 0 C 5.664062 0 5.28125 -0.382812 5.28125 -1.15625 L 5.28125 -49.53125 C 5.28125 -50.300781 5.664062 -50.6875 6.4375 -50.6875 L 38.453125 -50.6875 C 39.222656 -50.6875 39.609375 -50.300781 39.609375 -49.53125 Z M 39.609375 -44.609375 "/></g></g></g><g fill="#000000" fill-opacity="1"><g transform="translate(892.290217, 974.503848)"><g><path d="M 38.296875 -50.6875 C 39.078125 -50.6875 39.46875 -50.300781 39.46875 -49.53125 L 39.46875 -44.53125 C 39.46875 -43.757812 39.078125 -43.375 38.296875 -43.375 L 25.34375 -43.375 C 25.050781 -43.375 24.90625 -43.226562 24.90625 -42.9375 L 24.90625 -1.15625 C 24.90625 -0.382812 24.519531 0 23.75 0 L 17.671875 0 C 16.898438 0 16.515625 -0.382812 16.515625 -1.15625 L 16.515625 -42.9375 C 16.515625 -43.226562 16.367188 -43.375 16.078125 -43.375 L 3.625 -43.375 C 2.851562 -43.375 2.46875 -43.757812 2.46875 -44.53125 L 2.46875 -49.53125 C 2.46875 -50.300781 2.851562 -50.6875 3.625 -50.6875 Z M 38.296875 -50.6875 "/></g></g></g><g fill="#000000" fill-opacity="1"><g transform="translate(964.702353, 974.503848)"><g><path d="M 15.921875 0 C 15.203125 0 14.769531 -0.335938 14.625 -1.015625 L 1.59375 -49.375 C 1.539062 -49.476562 1.515625 -49.601562 1.515625 -49.75 C 1.515625 -50.03125 1.609375 -50.253906 1.796875 -50.421875 C 1.992188 -50.597656 2.265625 -50.6875 2.609375 -50.6875 L 9.125 -50.6875 C 9.800781 -50.6875 10.210938 -50.347656 10.359375 -49.671875 L 18.53125 -17.09375 C 18.582031 -16.894531 18.679688 -16.796875 18.828125 -16.796875 C 18.972656 -16.796875 19.066406 -16.894531 19.109375 -17.09375 L 26.859375 -49.671875 C 27.003906 -50.347656 27.414062 -50.6875 28.09375 -50.6875 L 34.609375 -50.6875 C 35.335938 -50.6875 35.769531 -50.347656 35.90625 -49.671875 L 44.171875 -17.09375 C 44.210938 -16.894531 44.304688 -16.796875 44.453125 -16.796875 C 44.597656 -16.796875 44.695312 -16.894531 44.75 -17.09375 L 52.78125 -49.671875 C 52.925781 -50.347656 53.335938 -50.6875 54.015625 -50.6875 L 60.234375 -50.6875 C 60.628906 -50.6875 60.910156 -50.5625 61.078125 -50.3125 C 61.242188 -50.070312 61.28125 -49.757812 61.1875 -49.375 L 48.875 -1.015625 C 48.726562 -0.335938 48.296875 0 47.578125 0 L 41.265625 0 C 40.597656 0 40.191406 -0.335938 40.046875 -1.015625 L 31.640625 -35.109375 C 31.585938 -35.304688 31.488281 -35.40625 31.34375 -35.40625 C 31.207031 -35.40625 31.113281 -35.304688 31.0625 -35.109375 L 23.03125 -1.015625 C 22.882812 -0.335938 22.472656 0 21.796875 0 Z M 15.921875 0 "/></g></g></g><g fill="#000000" fill-opacity="1"><g transform="translate(1057.968584, 974.503848)"><g><path d="M 22.453125 0.71875 C 18.828125 0.71875 15.613281 -0.015625 12.8125 -1.484375 C 10.007812 -2.953125 7.847656 -5.035156 6.328125 -7.734375 C 4.816406 -10.441406 4.0625 -13.5625 4.0625 -17.09375 L 4.0625 -33.59375 C 4.0625 -37.070312 4.832031 -40.148438 6.375 -42.828125 C 7.914062 -45.503906 10.070312 -47.578125 12.84375 -49.046875 C 15.625 -50.523438 18.828125 -51.265625 22.453125 -51.265625 C 26.117188 -51.265625 29.335938 -50.523438 32.109375 -49.046875 C 34.890625 -47.578125 37.050781 -45.503906 38.59375 -42.828125 C 40.132812 -40.148438 40.90625 -37.070312 40.90625 -33.59375 L 40.90625 -17.09375 C 40.90625 -13.5625 40.132812 -10.441406 38.59375 -7.734375 C 37.050781 -5.035156 34.890625 -2.953125 32.109375 -1.484375 C 29.335938 -0.015625 26.117188 0.71875 22.453125 0.71875 Z M 22.453125 -6.515625 C 25.484375 -6.515625 27.914062 -7.457031 29.75 -9.34375 C 31.59375 -11.226562 32.515625 -13.710938 32.515625 -16.796875 L 32.515625 -33.671875 C 32.515625 -36.804688 31.59375 -39.3125 29.75 -41.1875 C 27.914062 -43.070312 25.484375 -44.015625 22.453125 -44.015625 C 19.453125 -44.015625 17.035156 -43.070312 15.203125 -41.1875 C 13.367188 -39.3125 12.453125 -36.804688 12.453125 -33.671875 L 12.453125 -16.796875 C 12.453125 -13.710938 13.367188 -11.226562 15.203125 -9.34375 C 17.035156 -7.457031 19.453125 -6.515625 22.453125 -6.515625 Z M 22.453125 -6.515625 "/></g></g></g><g fill="#000000" fill-opacity="1"><g transform="translate(1133.421916, 974.503848)"><g><path d="M 33.953125 0 C 33.273438 0 32.816406 -0.289062 32.578125 -0.875 L 23.09375 -21.578125 C 23.050781 -21.765625 22.882812 -21.859375 22.59375 -21.859375 L 14.125 -21.859375 C 13.832031 -21.859375 13.6875 -21.71875 13.6875 -21.4375 L 13.6875 -1.15625 C 13.6875 -0.382812 13.300781 0 12.53125 0 L 6.4375 0 C 5.664062 0 5.28125 -0.382812 5.28125 -1.15625 L 5.28125 -49.59375 C 5.28125 -50.363281 5.664062 -50.75 6.4375 -50.75 L 26.0625 -50.75 C 29.007812 -50.75 31.617188 -50.132812 33.890625 -48.90625 C 36.160156 -47.675781 37.921875 -45.9375 39.171875 -43.6875 C 40.421875 -41.445312 41.046875 -38.878906 41.046875 -35.984375 C 41.046875 -32.648438 40.1875 -29.8125 38.46875 -27.46875 C 36.757812 -25.132812 34.410156 -23.53125 31.421875 -22.65625 C 31.273438 -22.613281 31.175781 -22.53125 31.125 -22.40625 C 31.082031 -22.289062 31.109375 -22.179688 31.203125 -22.078125 L 41.203125 -1.375 L 41.34375 -0.796875 C 41.34375 -0.265625 41.003906 0 40.328125 0 Z M 14.125 -43.515625 C 13.832031 -43.515625 13.6875 -43.367188 13.6875 -43.078125 L 13.6875 -28.8125 C 13.6875 -28.53125 13.832031 -28.390625 14.125 -28.390625 L 24.90625 -28.390625 C 27.226562 -28.390625 29.097656 -29.078125 30.515625 -30.453125 C 31.941406 -31.828125 32.65625 -33.625 32.65625 -35.84375 C 32.65625 -38.113281 31.941406 -39.957031 30.515625 -41.375 C 29.097656 -42.800781 27.226562 -43.515625 24.90625 -43.515625 Z M 14.125 -43.515625 "/></g></g></g><g fill="#000000" fill-opacity="1"><g transform="translate(1208.295977, 974.503848)"><g><path d="M 6.4375 0 C 5.664062 0 5.28125 -0.382812 5.28125 -1.15625 L 5.28125 -49.53125 C 5.28125 -50.300781 5.664062 -50.6875 6.4375 -50.6875 L 12.53125 -50.6875 C 13.300781 -50.6875 13.6875 -50.300781 13.6875 -49.53125 L 13.6875 -28.234375 C 13.6875 -28.046875 13.742188 -27.9375 13.859375 -27.90625 C 13.984375 -27.882812 14.09375 -27.945312 14.1875 -28.09375 L 32.796875 -50.03125 C 33.179688 -50.46875 33.664062 -50.6875 34.25 -50.6875 L 41.125 -50.6875 C 41.75 -50.6875 42.0625 -50.441406 42.0625 -49.953125 C 42.0625 -49.671875 41.96875 -49.429688 41.78125 -49.234375 L 25.484375 -29.328125 C 25.335938 -29.179688 25.335938 -28.988281 25.484375 -28.75 L 43.015625 -1.375 C 43.148438 -1.1875 43.21875 -0.96875 43.21875 -0.71875 C 43.21875 -0.238281 42.882812 0 42.21875 0 L 35.265625 0 C 34.640625 0 34.179688 -0.265625 33.890625 -0.796875 L 19.765625 -22.8125 C 19.671875 -22.957031 19.5625 -23.039062 19.4375 -23.0625 C 19.320312 -23.082031 19.210938 -23.019531 19.109375 -22.875 L 13.90625 -16.71875 C 13.757812 -16.53125 13.6875 -16.363281 13.6875 -16.21875 L 13.6875 -1.15625 C 13.6875 -0.382812 13.300781 0 12.53125 0 Z M 6.4375 0 "/></g></g></g></svg>